<svg width="394" height="383" viewBox="0 0 394 383" fill="none" xmlns="http://www.w3.org/2000/svg">
<path d="M231.457 139.634C233.682 141.86 235.52 143.699 237.358 145.539C253.343 161.486 269.341 177.433 285.327 193.38C290.768 198.813 296.21 204.246 301.675 209.654C305.013 212.945 306.633 216.902 306.633 221.596C306.609 239.552 306.633 257.508 306.633 275.464C306.633 278.065 305.932 279.239 303.683 279.723C302.824 279.904 301.784 279.517 300.901 279.178C300.357 278.972 299.946 278.38 299.511 277.932C265.714 244.089 231.904 210.247 198.119 176.405C197.684 175.969 197.357 175.412 196.934 174.844C196.245 175.497 195.834 175.884 195.423 176.284C161.686 210.066 127.949 243.847 94.2124 277.629C93.765 278.077 93.366 278.573 92.8581 278.948C91.794 279.723 90.6452 280.303 89.2788 279.723C87.7794 279.081 86.8604 278.005 86.7516 276.323C86.7516 276.129 86.7516 275.936 86.7516 275.742C86.7516 257.689 86.7032 239.637 86.8242 221.584C86.8484 217.458 88.9766 214.034 91.8424 211.154C106.957 195.97 122.085 180.797 137.2 165.612C182.557 120.081 227.914 74.5384 273.283 29.0078C282.159 20.1026 291.034 11.1973 299.861 2.24361C301.059 1.03366 302.365 0.706969 303.912 0.888462C305.484 1.08206 306.621 2.6187 306.633 4.63932C306.657 10.2051 306.633 15.7709 306.633 21.3367C306.633 33.4363 306.56 45.5358 306.669 57.6354C306.718 62.8019 304.88 66.9399 301.228 70.5577C288.168 83.48 275.206 96.5112 262.207 109.506C252.485 119.21 242.775 128.914 233.041 138.606C232.642 139.005 232.074 139.247 231.481 139.634H231.457Z" fill="#707271"/>
<path d="M181.892 90.0742C170.162 101.823 158.566 113.438 146.909 125.115C146.704 124.921 146.377 124.655 146.075 124.352C133.548 111.926 121.008 99.4998 108.481 87.0735C102.846 81.4956 97.1991 75.9298 91.5763 70.3399C88.3357 67.1214 86.7153 63.189 86.7153 58.6154C86.7153 40.5628 86.7395 22.5224 86.7153 4.46988C86.7153 2.54605 87.2232 1.02151 89.1216 0.271333C90.9717 -0.45464 92.3623 0.36813 93.6441 1.65068C122.786 30.8348 151.94 60.0068 181.081 89.191C181.384 89.4934 181.674 89.8201 181.892 90.0621V90.0742Z" fill="#4AC0B1"/>
<path d="M381.446 358.406C383.84 363.33 386.15 368.049 388.46 372.78C389.439 374.777 390.419 376.773 391.386 378.769C392.244 380.536 391.966 381.891 390.66 382.532C389.282 383.21 388.073 382.666 387.214 380.899C383.78 373.918 380.346 366.948 376.96 359.943C376.489 358.975 375.944 358.648 374.868 358.66C369.366 358.721 363.852 358.684 358.338 358.684C357.867 358.684 357.395 358.721 356.779 358.757V360.402C356.779 366.936 356.779 373.47 356.779 379.992C356.779 381.831 355.908 382.799 354.36 382.726C353.078 382.666 352.305 381.964 352.099 380.693C352.026 380.27 352.075 379.822 352.075 379.387C352.075 363.802 352.075 348.23 352.075 332.646C352.075 330.129 352.812 329.391 355.376 329.391C362.571 329.391 369.777 329.355 376.972 329.391C381.906 329.427 386.501 330.504 389.923 334.425C396.852 342.35 393.115 355.042 383.018 357.922C382.559 358.055 382.111 358.176 381.446 358.37V358.406ZM356.851 354.328C357.274 354.377 357.649 354.474 358.024 354.474C364.783 354.461 371.555 354.522 378.314 354.377C386.573 354.195 389.524 348.194 388.109 341.043C387.202 336.433 383.296 333.771 378.085 333.747C371.374 333.699 364.65 333.735 357.939 333.747C357.577 333.747 357.214 333.832 356.851 333.868V354.353V354.328Z" fill="#707271"/>
<path d="M290.297 333.711V352.804C290.841 352.804 291.349 352.804 291.856 352.804C296.645 352.804 301.421 352.743 306.21 352.864C306.959 352.876 307.975 353.493 308.35 354.135C308.652 354.643 308.374 355.78 307.963 356.337C307.624 356.797 306.705 356.99 306.028 357.002C301.337 357.075 296.657 357.075 291.965 357.087C291.445 357.087 290.925 357.087 290.321 357.087V377.826H291.869C300.272 377.826 308.689 377.826 317.092 377.826C317.528 377.826 317.963 377.801 318.398 377.838C319.656 377.971 320.515 378.878 320.442 380.04C320.369 381.274 319.644 381.964 318.435 382.133C318.108 382.182 317.758 382.145 317.419 382.145C307.854 382.145 298.277 382.145 288.712 382.145C286.185 382.145 285.411 381.383 285.411 378.866C285.411 363.476 285.411 348.085 285.411 332.694C285.411 330.166 286.173 329.403 288.7 329.403C298.314 329.403 307.939 329.44 317.552 329.464C319.414 329.464 320.067 329.924 320.164 331.218C320.297 333.045 319.668 333.687 317.697 333.687C309.148 333.687 300.587 333.687 292.038 333.687H290.284L290.297 333.711Z" fill="#707271"/>
<path d="M232.037 333.711C226.572 333.711 221.36 333.711 216.148 333.711C215.665 333.711 215.169 333.747 214.697 333.674C213.609 333.505 212.956 332.84 212.884 331.739C212.811 330.638 213.319 329.863 214.395 329.573C214.903 329.44 215.447 329.428 215.967 329.428C228.337 329.428 240.707 329.452 253.065 329.476C254.94 329.476 255.665 329.924 255.786 331.146C255.968 332.973 255.315 333.711 253.404 333.711C248.47 333.723 243.549 333.711 238.615 333.711C238.083 333.711 237.563 333.711 236.862 333.711C236.826 334.376 236.765 334.981 236.765 335.586C236.765 350.009 236.765 364.419 236.765 378.842C236.765 379.278 236.765 379.713 236.765 380.149C236.717 381.782 235.883 382.726 234.48 382.762C233.017 382.799 232.049 381.819 232.037 380.137C232.013 375.103 232.037 370.07 232.037 365.049C232.037 355.175 232.037 345.314 232.037 335.441V333.723V333.711Z" fill="#707271"/>
<path d="M178.869 373.434C178.869 359.689 178.893 345.956 178.905 332.21C178.905 331.678 178.869 331.134 178.953 330.613C179.171 329.367 180.042 328.786 181.215 328.81C182.339 328.835 183.125 329.452 183.306 330.638C183.367 331.013 183.355 331.412 183.355 331.799C183.355 347.819 183.355 363.827 183.355 379.846C183.355 380.887 183.367 381.903 182.279 382.484C181.13 383.101 180.054 382.787 179.05 381.468C175.338 376.58 171.638 371.679 167.937 366.791C160.936 357.547 153.935 348.291 146.922 339.047C146.668 338.708 146.377 338.405 145.821 337.752V339.615C145.821 352.828 145.821 366.029 145.821 379.241C145.821 379.774 145.857 380.318 145.761 380.826C145.519 382.073 144.745 382.811 143.427 382.738C142.133 382.678 141.42 381.903 141.262 380.633C141.214 380.246 141.25 379.858 141.25 379.471C141.25 363.693 141.25 347.928 141.25 332.15C141.25 330.928 141.105 329.549 142.568 329.101C144.056 328.641 145.132 329.319 146.099 330.601C156.837 344.903 167.623 359.168 178.409 373.434C178.554 373.567 178.699 373.688 178.844 373.821C178.844 373.688 178.844 373.567 178.857 373.434H178.869Z" fill="#707271"/>
<path d="M79.5328 357.027V377.826C80.0406 377.826 80.5485 377.826 81.0564 377.826C89.5087 377.826 97.9731 377.826 106.425 377.826C106.957 377.826 107.514 377.777 108.009 377.91C109.037 378.189 109.666 378.878 109.654 380.004C109.654 381.141 109.001 381.794 107.973 382.073C107.562 382.182 107.115 382.145 106.679 382.145C97.1146 382.145 87.5377 382.145 77.9729 382.145C75.3731 382.145 74.6355 381.407 74.6355 378.757C74.6355 363.415 74.6355 348.073 74.6355 332.731C74.6355 330.178 75.3852 329.415 77.9003 329.415C87.4651 329.415 97.042 329.415 106.607 329.415C107.127 329.415 107.84 329.331 108.142 329.621C108.747 330.19 109.436 330.964 109.533 331.714C109.666 332.731 108.892 333.505 107.78 333.662C107.308 333.735 106.812 333.699 106.329 333.699C97.9731 333.699 89.6054 333.699 81.2498 333.699H79.569V352.792C80.0648 352.792 80.5727 352.792 81.0805 352.792C85.869 352.792 90.6453 352.792 95.4338 352.792C96.51 352.792 97.4894 353.155 97.6466 354.232C97.7554 354.97 97.429 355.938 96.9574 356.531C96.643 356.93 95.7361 356.99 95.0831 357.002C90.4398 357.039 85.8085 357.027 81.1652 357.027C80.6452 357.027 80.1253 357.027 79.5207 357.027H79.5328Z" fill="#707271"/>
<path d="M21.358 351.872C25.0944 347.032 28.6857 342.362 32.2892 337.692C34.236 335.163 36.1828 332.634 38.1417 330.117C39.0002 329.004 40.7294 328.605 41.6847 329.282C42.6883 329.996 42.6762 331.339 41.6 332.731C36.0377 339.978 30.4633 347.214 24.9009 354.462C24.6107 354.837 24.3447 355.224 24.0303 355.659C28.1416 360.995 32.2045 366.283 36.2674 371.57C38.0933 373.942 39.9313 376.313 41.7451 378.697C42.9301 380.246 42.9906 381.637 41.9386 382.399C40.8382 383.198 39.3993 382.762 38.2384 381.262C32.8938 374.329 27.5491 367.408 22.2044 360.475C21.9747 360.172 21.7207 359.882 21.3701 359.434C20.4148 360.656 19.5079 361.806 18.6131 362.967C13.9456 369.017 9.29012 375.067 4.6226 381.117C4.35658 381.456 4.09056 381.819 3.77616 382.109C2.92972 382.908 1.49077 383.041 0.728973 382.327C-0.202113 381.468 -0.190021 380.415 0.47504 379.435C1.4424 378.044 2.5065 376.725 3.53432 375.382C8.33486 369.138 13.1233 362.883 17.9722 356.664C18.601 355.865 18.601 355.381 17.9722 354.582C12.4582 347.48 6.98055 340.353 1.50286 333.227C1.35776 333.033 1.20056 332.852 1.05546 332.646C0.0518192 331.279 0.0397272 330.093 0.994997 329.307C2.09537 328.399 3.42549 328.641 4.48959 330.008C7.53678 333.941 10.5719 337.885 13.6191 341.83C16.1584 345.121 18.6977 348.4 21.3701 351.872H21.358Z" fill="#707271"/>
</svg>
